<svg xmlns="http://www.w3.org/2000/svg" width="872" height="464">
  <style>
    line, path, circle, rect, polygon{stroke:black;stroke-width:2;stroke-opacity:1;fill-opacity:1;stroke-linecap:round;stroke-linejoin:miter;}text{font-family:Iosevka Fixed, monospace;font-size:14px;}rect.backdrop{stroke:none;fill:white;}.broken{stroke-dasharray:8;}.filled{fill:black;}.bg_filled{fill:white;}.nofill{fill:white;}.end_marked_arrow{marker-end:url(#arrow);}.start_marked_arrow{marker-start:url(#arrow);}.end_marked_diamond{marker-end:url(#diamond);}.start_marked_diamond{marker-start:url(#diamond);}.end_marked_circle{marker-end:url(#circle);}.start_marked_circle{marker-start:url(#circle);}.end_marked_open_circle{marker-end:url(#open_circle);}.start_marked_open_circle{marker-start:url(#open_circle);}.end_marked_big_open_circle{marker-end:url(#big_open_circle);}.start_marked_big_open_circle{marker-start:url(#big_open_circle);}
    <!--separator-->
    
  </style>
  <defs>
    <marker id="arrow" viewBox="-2 -2 8 8" refX="4" refY="2" markerWidth="7" markerHeight="7" orient="auto-start-reverse">
      <polygon points="0,0 0,4 4,2 0,0"></polygon>
    </marker>
    <marker id="diamond" viewBox="-2 -2 8 8" refX="4" refY="2" markerWidth="7" markerHeight="7" orient="auto-start-reverse">
      <polygon points="0,2 2,0 4,2 2,4 0,2"></polygon>
    </marker>
    <marker id="circle" viewBox="0 0 8 8" refX="4" refY="4" markerWidth="7" markerHeight="7" orient="auto-start-reverse">
      <circle cx="4" cy="4" r="2" class="filled"></circle>
    </marker>
    <marker id="open_circle" viewBox="0 0 8 8" refX="4" refY="4" markerWidth="7" markerHeight="7" orient="auto-start-reverse">
      <circle cx="4" cy="4" r="2" class="bg_filled"></circle>
    </marker>
    <marker id="big_open_circle" viewBox="0 0 8 8" refX="4" refY="4" markerWidth="7" markerHeight="7" orient="auto-start-reverse">
      <circle cx="4" cy="4" r="3" class="bg_filled"></circle>
    </marker>
  </defs>
  <rect class="backdrop" x="0" y="0" width="872" height="464"></rect>
  <rect x="244" y="376" width="80" height="48" class="solid nofill" rx="4"></rect>
  <line x1="56" y1="24" x2="64" y2="24" class="solid"></line>
  <text x="114" y="28" >+</text>
  <line x1="36" y1="40" x2="64" y2="40" class="solid"></line>
  <text x="82" y="44" >1</text>
  <text x="26" y="60" >GND</text>
  <line x1="324" y1="32" x2="324" y2="48" class="solid"></line>
  <line x1="340" y1="32" x2="340" y2="48" class="solid"></line>
  <text x="746" y="76" >MPU</text>
  <text x="778" y="76" >6050</text>
  <rect x="768" y="84" width="8" height="8" class="solid filled" rx="0"></rect>
  <rect x="776" y="84" width="8" height="8" class="solid filled" rx="0"></rect>
  <rect x="784" y="84" width="8" height="8" class="solid filled" rx="0"></rect>
  <rect x="272" y="100" width="8" height="8" class="solid filled" rx="0"></rect>
  <rect x="280" y="100" width="8" height="8" class="solid filled" rx="0"></rect>
  <rect x="272" y="196" width="8" height="8" class="solid filled" rx="0"></rect>
  <rect x="280" y="196" width="8" height="8" class="solid filled" rx="0"></rect>
  <text x="274" y="236" >YYNMOS4</text>
  <text x="610" y="76" >B10</text>
  <text x="610" y="92" >B11</text>
  <line x1="640" y1="72" x2="688" y2="72" class="solid"></line>
  <line x1="640" y1="88" x2="688" y2="88" class="solid"></line>
  <text x="698" y="76" >SDA</text>
  <text x="698" y="92" >SCL</text>
  <text x="842" y="76" >GND</text>
  <text x="58" y="92" >+</text>
  <line x1="112" y1="88" x2="120" y2="88" class="solid"></line>
  <line x1="36" y1="104" x2="64" y2="104" class="solid"></line>
  <text x="82" y="108" >2</text>
  <text x="26" y="124" >GND</text>
  <text x="370" y="124" >PWM4</text>
  <text x="370" y="140" >PWM3</text>
  <text x="370" y="156" >PWM2</text>
  <text x="370" y="172" >PWM1</text>
  <text x="466" y="156" >B6</text>
  <text x="466" y="172" >B7</text>
  <text x="466" y="188" >B8</text>
  <text x="466" y="204" >B9</text>
  <text x="458" y="220" >GND</text>
  <text x="522" y="124" >STM32</text>
  <rect x="272" y="132" width="8" height="8" class="solid filled" rx="0"></rect>
  <rect x="280" y="132" width="8" height="8" class="solid filled" rx="0"></rect>
  <line x1="56" y1="152" x2="64" y2="152" class="solid"></line>
  <text x="114" y="156" >+</text>
  <line x1="36" y1="168" x2="64" y2="168" class="solid"></line>
  <text x="82" y="172" >3</text>
  <line x1="112" y1="168" x2="184" y2="168" class="solid"></line>
  <text x="26" y="188" >GND</text>
  <text x="754" y="172" >JDY</text>
  <text x="786" y="172" >31</text>
  <text x="762" y="188" >SPP</text>
  <text x="794" y="236" >GND</text>
  <rect x="272" y="164" width="8" height="8" class="solid filled" rx="0"></rect>
  <rect x="280" y="164" width="8" height="8" class="solid filled" rx="0"></rect>
  <text x="610" y="172" >A3</text>
  <text x="610" y="188" >A2</text>
  <line x1="632" y1="168" x2="688" y2="168" class="solid"></line>
  <line x1="632" y1="184" x2="688" y2="184" class="solid"></line>
  <text x="698" y="172" >TX</text>
  <text x="698" y="188" >RX</text>
  <text x="58" y="220" >+</text>
  <line x1="112" y1="216" x2="120" y2="216" class="solid"></line>
  <line x1="36" y1="232" x2="64" y2="232" class="solid"></line>
  <text x="82" y="236" >4</text>
  <text x="26" y="252" >GND</text>
  <text x="146" y="300" >GND</text>
  <text x="426" y="300" >GND</text>
  <text x="250" y="364" >Syma</text>
  <text x="290" y="364" >X5C</text>
  <line x1="356" y1="368" x2="356" y2="384" class="solid"></line>
  <line x1="344" y1="392" x2="368" y2="392" class="solid"></line>
  <rect x="344" y="404" width="8" height="8" class="solid filled" rx="0"></rect>
  <rect x="352" y="404" width="8" height="8" class="solid filled" rx="0"></rect>
  <line x1="356" y1="412" x2="356" y2="432" class="solid"></line>
  <rect x="360" y="404" width="8" height="8" class="solid filled" rx="0"></rect>
  <text x="346" y="444" >GND</text>
  <text x="306" y="28" >3V GND</text>
  <text x="306" y="60" >DC+DC-</text>
  <text x="842" y="92" >3V</text>
  <text x="194" y="108" >OUT4+</text>
  <text x="194" y="140" >OUT3+</text>
  <text x="194" y="172" >OUT2+</text>
  <text x="194" y="204" >OUT1+</text>
  <text x="458" y="236" >3V</text>
  <text x="754" y="236" >3V</text>
  <text x="178" y="268" >OUTX-</text>
  <text x="370" y="268" >GNDX</text>
  <text x="346" y="364" >3V</text>
  <g>
    <path d="M 80,24 A 8,8 0,0,0 74,28" class="nofill"></path>
    <line x1="74" y1="28" x2="72" y2="32" class="solid"></line>
    <line x1="80" y1="24" x2="96" y2="24" class="solid"></line>
    <path d="M 96,24 A 8,8 0,0,1 102,28" class="nofill"></path>
    <line x1="102" y1="28" x2="104" y2="32" class="solid"></line>
    <path d="M 72,32 A 16,16 0,0,0 72,48" class="nofill"></path>
    <path d="M 104,32 A 16,16 0,0,1 104,48" class="nofill"></path>
    <line x1="72" y1="48" x2="74" y2="52" class="solid"></line>
    <path d="M 74,52 A 8,8 0,0,0 80,56" class="nofill"></path>
    <line x1="80" y1="56" x2="96" y2="56" class="solid"></line>
    <line x1="104" y1="48" x2="102" y2="52" class="solid"></line>
    <path d="M 102,52 A 8,8 0,0,1 96,56" class="nofill"></path>
  </g>
  <g>
    <line x1="112" y1="40" x2="172" y2="40" class="solid"></line>
    <line x1="172" y1="40" x2="172" y2="104" class="solid"></line>
    <line x1="172" y1="104" x2="184" y2="104" class="solid"></line>
  </g>
  <g>
    <line x1="508" y1="56" x2="580" y2="56" class="solid"></line>
    <line x1="508" y1="56" x2="508" y2="248" class="solid"></line>
    <line x1="580" y1="56" x2="580" y2="248" class="solid"></line>
    <line x1="580" y1="72" x2="600" y2="72" class="solid"></line>
    <line x1="580" y1="88" x2="600" y2="88" class="solid"></line>
    <line x1="488" y1="152" x2="508" y2="152" class="solid"></line>
    <line x1="488" y1="168" x2="508" y2="168" class="solid"></line>
    <line x1="580" y1="168" x2="600" y2="168" class="solid"></line>
    <line x1="488" y1="184" x2="508" y2="184" class="solid"></line>
    <line x1="580" y1="184" x2="600" y2="184" class="solid"></line>
    <line x1="488" y1="200" x2="508" y2="200" class="solid"></line>
    <line x1="488" y1="216" x2="508" y2="216" class="solid"></line>
    <line x1="488" y1="232" x2="508" y2="232" class="solid"></line>
    <line x1="508" y1="248" x2="580" y2="248" class="solid"></line>
  </g>
  <g>
    <line x1="740" y1="56" x2="820" y2="56" class="solid"></line>
    <line x1="740" y1="56" x2="740" y2="104" class="solid"></line>
    <line x1="820" y1="56" x2="820" y2="104" class="solid"></line>
    <line x1="728" y1="72" x2="740" y2="72" class="solid"></line>
    <line x1="820" y1="72" x2="832" y2="72" class="solid"></line>
    <line x1="728" y1="88" x2="740" y2="88" class="solid"></line>
    <line x1="820" y1="88" x2="832" y2="88" class="solid"></line>
    <line x1="740" y1="104" x2="820" y2="104" class="solid"></line>
  </g>
  <g>
    <line x1="324" y1="64" x2="324" y2="88" class="solid"></line>
    <line x1="340" y1="64" x2="340" y2="88" class="solid"></line>
    <line x1="260" y1="88" x2="348" y2="88" class="solid"></line>
    <line x1="260" y1="88" x2="260" y2="216" class="solid"></line>
    <line x1="348" y1="88" x2="348" y2="216" class="solid"></line>
    <line x1="248" y1="104" x2="260" y2="104" class="solid"></line>
    <line x1="348" y1="120" x2="360" y2="120" class="solid"></line>
    <line x1="248" y1="136" x2="260" y2="136" class="solid"></line>
    <line x1="348" y1="136" x2="360" y2="136" class="solid"></line>
    <line x1="348" y1="152" x2="360" y2="152" class="solid"></line>
    <line x1="248" y1="168" x2="260" y2="168" class="solid"></line>
    <line x1="348" y1="168" x2="360" y2="168" class="solid"></line>
    <line x1="248" y1="200" x2="260" y2="200" class="solid"></line>
    <line x1="260" y1="216" x2="348" y2="216" class="solid"></line>
    <line x1="268" y1="216" x2="268" y2="264" class="solid"></line>
    <line x1="340" y1="216" x2="340" y2="264" class="solid"></line>
    <line x1="232" y1="264" x2="268" y2="264" class="solid"></line>
    <line x1="340" y1="264" x2="368" y2="264" class="solid"></line>
  </g>
  <g>
    <path d="M 80,88 A 8,8 0,0,0 74,92" class="nofill"></path>
    <line x1="74" y1="92" x2="72" y2="96" class="solid"></line>
    <line x1="80" y1="88" x2="96" y2="88" class="solid"></line>
    <path d="M 96,88 A 8,8 0,0,1 102,92" class="nofill"></path>
    <line x1="102" y1="92" x2="104" y2="96" class="solid"></line>
    <path d="M 72,96 A 16,16 0,0,0 72,112" class="nofill"></path>
    <path d="M 104,96 A 16,16 0,0,1 104,112" class="nofill"></path>
    <line x1="72" y1="112" x2="74" y2="116" class="solid"></line>
    <path d="M 74,116 A 8,8 0,0,0 80,120" class="nofill"></path>
    <line x1="80" y1="120" x2="96" y2="120" class="solid"></line>
    <line x1="104" y1="112" x2="102" y2="116" class="solid"></line>
    <path d="M 102,116 A 8,8 0,0,1 96,120" class="nofill"></path>
  </g>
  <g>
    <line x1="112" y1="104" x2="140" y2="104" class="solid"></line>
    <line x1="140" y1="104" x2="140" y2="136" class="solid"></line>
    <line x1="140" y1="136" x2="184" y2="136" class="solid"></line>
  </g>
  <g>
    <line x1="408" y1="120" x2="436" y2="120" class="solid"></line>
    <line x1="436" y1="120" x2="436" y2="152" class="solid"></line>
    <line x1="436" y1="152" x2="464" y2="152" class="solid"></line>
  </g>
  <g>
    <line x1="408" y1="136" x2="428" y2="136" class="solid"></line>
    <line x1="428" y1="136" x2="428" y2="168" class="solid"></line>
    <line x1="428" y1="168" x2="464" y2="168" class="solid"></line>
  </g>
  <g>
    <line x1="408" y1="152" x2="420" y2="152" class="solid"></line>
    <line x1="420" y1="152" x2="420" y2="184" class="solid"></line>
    <line x1="420" y1="184" x2="464" y2="184" class="solid"></line>
  </g>
  <g>
    <line x1="412" y1="168" x2="412" y2="200" class="solid"></line>
    <line x1="412" y1="200" x2="464" y2="200" class="solid"></line>
  </g>
  <g>
    <path d="M 80,152 A 8,8 0,0,0 74,156" class="nofill"></path>
    <line x1="74" y1="156" x2="72" y2="160" class="solid"></line>
    <line x1="80" y1="152" x2="96" y2="152" class="solid"></line>
    <path d="M 96,152 A 8,8 0,0,1 102,156" class="nofill"></path>
    <line x1="102" y1="156" x2="104" y2="160" class="solid"></line>
    <path d="M 72,160 A 16,16 0,0,0 72,176" class="nofill"></path>
    <path d="M 104,160 A 16,16 0,0,1 104,176" class="nofill"></path>
    <line x1="72" y1="176" x2="74" y2="180" class="solid"></line>
    <path d="M 74,180 A 8,8 0,0,0 80,184" class="nofill"></path>
    <line x1="80" y1="184" x2="96" y2="184" class="solid"></line>
    <line x1="104" y1="176" x2="102" y2="180" class="solid"></line>
    <path d="M 102,180 A 8,8 0,0,1 96,184" class="nofill"></path>
  </g>
  <g>
    <line x1="544" y1="144" x2="528" y2="176" class="solid"></line>
    <line x1="544" y1="144" x2="560" y2="176" class="solid"></line>
    <line x1="528" y1="176" x2="544" y2="208" class="solid"></line>
    <line x1="560" y1="176" x2="544" y2="208" class="solid"></line>
  </g>
  <g>
    <line x1="732" y1="152" x2="836" y2="152" class="solid"></line>
    <line x1="732" y1="152" x2="732" y2="200" class="solid"></line>
    <line x1="820" y1="152" x2="820" y2="184" class="solid"></line>
    <line x1="836" y1="152" x2="836" y2="200" class="solid"></line>
    <line x1="720" y1="168" x2="732" y2="168" class="solid"></line>
    <line x1="720" y1="184" x2="732" y2="184" class="solid"></line>
    <line x1="820" y1="184" x2="828" y2="184" class="solid"></line>
    <line x1="828" y1="184" x2="828" y2="200" class="solid"></line>
    <line x1="732" y1="200" x2="836" y2="200" class="solid"></line>
    <line x1="764" y1="200" x2="764" y2="224" class="solid"></line>
    <line x1="804" y1="200" x2="804" y2="224" class="solid"></line>
  </g>
  <g>
    <line x1="132" y1="200" x2="184" y2="200" class="solid"></line>
    <line x1="132" y1="200" x2="132" y2="232" class="solid"></line>
    <line x1="112" y1="232" x2="132" y2="232" class="solid"></line>
  </g>
  <g>
    <path d="M 80,216 A 8,8 0,0,0 74,220" class="nofill"></path>
    <line x1="74" y1="220" x2="72" y2="224" class="solid"></line>
    <line x1="80" y1="216" x2="96" y2="216" class="solid"></line>
    <path d="M 96,216 A 8,8 0,0,1 102,220" class="nofill"></path>
    <line x1="102" y1="220" x2="104" y2="224" class="solid"></line>
    <path d="M 72,224 A 16,16 0,0,0 72,240" class="nofill"></path>
    <path d="M 104,224 A 16,16 0,0,1 104,240" class="nofill"></path>
    <line x1="72" y1="240" x2="74" y2="244" class="solid"></line>
    <path d="M 74,244 A 8,8 0,0,0 80,248" class="nofill"></path>
    <line x1="80" y1="248" x2="96" y2="248" class="solid"></line>
    <line x1="104" y1="240" x2="102" y2="244" class="solid"></line>
    <path d="M 102,244 A 8,8 0,0,1 96,248" class="nofill"></path>
  </g>
  <g>
    <line x1="156" y1="264" x2="176" y2="264" class="solid"></line>
    <line x1="156" y1="264" x2="156" y2="288" class="solid"></line>
  </g>
  <g>
    <line x1="416" y1="264" x2="436" y2="264" class="solid"></line>
    <line x1="436" y1="264" x2="436" y2="288" class="solid"></line>
  </g>
</svg>
